<?xml version="1.0" encoding="utf-8"?>
<!-- Generator: Adobe Illustrator 28.1.0, SVG Export Plug-In . SVG Version: 6.00 Build 0)  -->
<svg version="1.1" id="Layer_1" xmlns="http://www.w3.org/2000/svg" xmlns:xlink="http://www.w3.org/1999/xlink" x="0px" y="0px"
	 viewBox="0 0 256 508" style="enable-background:new 0 0 256 508;" xml:space="preserve">
<style type="text/css">
	.st0{fill:#FF5D01;}
</style>
<path d="M182,80.1c3,3.7,4.5,8.7,7.5,18.7L256,317.1c-25-12.9-51.7-22-79.4-26.9L133.3,144c-0.9-3-4-4.7-7-3.8
	c-1.8,0.5-3.3,2-3.8,3.8L79.8,290.1C52,295,25.1,304,0,317L66.8,98.8c3.1-10,4.6-15,7.6-18.7c2.6-3.3,6.1-5.8,9.9-7.4
	c4.4-1.8,9.6-1.8,20-1.8H152c10.4,0,15.7,0,20.1,1.8C176,74.3,179.4,76.9,182,80.1L182,80.1z"/>
<path class="st0" d="M190,327.5c-11,9.4-32.8,15.8-58,15.8c-30.9,0-56.8-9.6-63.7-22.6c-2.5,7.4-3,15.9-3,21.3
	c0,0-1.6,26.6,16.9,45.1c0-9.6,7.8-17.4,17.4-17.4c16.5,0,16.5,14.4,16.4,26l0,1c0,17.7,10.8,32.9,26.2,39.3
	c-2.4-4.9-3.6-10.2-3.6-15.6c0-16.9,9.9-23.2,21.4-30.5c9.2-5.8,19.4-12.3,26.4-25.2c3.8-7,5.8-14.8,5.7-22.7
	C192.2,336.9,191.4,332,190,327.5L190,327.5z"/>
</svg>
