<svg id="Capa_1" data-name="Capa 1" xmlns="http://www.w3.org/2000/svg" viewBox="0 0 120 120"><defs><style>.cls-1{fill:#0acf83;}.cls-2{fill:#a259ff;}.cls-3{fill:#f24e1e;}.cls-4{fill:#ff7262;}.cls-5{fill:#1abcfe;}</style></defs><path class="cls-1" d="M43.85,108.45A16.16,16.16,0,0,0,60,92.3V76.15H43.85a16.15,16.15,0,0,0,0,32.3Z"/><path class="cls-2" d="M27.7,60A16.15,16.15,0,0,1,43.85,43.85H60v32.3H43.85A16.15,16.15,0,0,1,27.7,60Z"/><path class="cls-3" d="M27.7,27.7A16.15,16.15,0,0,1,43.85,11.55H60v32.3H43.85A16.16,16.16,0,0,1,27.7,27.7Z"/><path class="cls-4" d="M60,11.55H76.15a16.15,16.15,0,0,1,0,32.3H60Z"/><path class="cls-5" d="M92.3,60A16.15,16.15,0,1,1,76.15,43.85,16.15,16.15,0,0,1,92.3,60Z"/></svg>