<?xml version="1.0" encoding="utf-8"?>
<!-- Generator: Adobe Illustrator 27.3.1, SVG Export Plug-In . SVG Version: 6.00 Build 0)  -->
<svg version="1.1" id="Layer_1" xmlns="http://www.w3.org/2000/svg" xmlns:xlink="http://www.w3.org/1999/xlink" x="0px" y="0px"
	 viewBox="0 0 105 132" style="enable-background:new 0 0 105 132;" xml:space="preserve">
<style type="text/css">
	.st0{fill:#FFA000;}
	.st1{fill:#F57C00;}
	.st2{fill:#FFCA28;}
	.st3{fill:#FFFFFF;fill-opacity:0.2;}
	.st4{opacity:0.2;fill:#A52714;enable-background:new    ;}
	.st5{fill:url(#b_00000145772742992706397620000012608900108679988867_);}
</style>
<g>
	<path class="st0" d="M16,96.8l12.4-79.1c0.2-1,0.9-1.7,1.9-1.9c1-0.2,1.9,0.3,2.4,1.2l12.8,23.8l5.1-9.7c0.4-0.7,1.2-1.2,2-1.2
		s1.6,0.5,2,1.2L89,96.8L16,96.8L16,96.8z"/>
	<path class="st1" d="M58.7,66L45.4,40.8L16,96.8L58.7,66z"/>
	<path class="st2" d="M89,96.8l-9.5-58.6c-0.1-0.8-0.7-1.5-1.6-1.8c-0.8-0.3-1.7,0-2.3,0.6L16,96.8l33,18.5c2.1,1.2,4.6,1.2,6.7,0
		L89,96.8L89,96.8z"/>
	<path class="st3" d="M79.6,38.2c-0.1-0.8-0.7-1.5-1.6-1.8c-0.8-0.3-1.7,0-2.3,0.6L63.9,48.9l-9.3-17.7c-0.4-0.7-1.2-1.2-2-1.2
		s-1.6,0.5-2,1.2l-5.1,9.7L32.6,17c-0.5-0.9-1.4-1.3-2.4-1.2c-1,0.2-1.7,0.9-1.9,1.9L16,96.8h0l0,0l0.3,0.2l59.3-59.4
		c0.6-0.6,1.5-0.8,2.3-0.6s1.4,1,1.6,1.8l9.4,58l0.1-0.1L79.6,38.2L79.6,38.2z M16.1,96.7l12.2-78.4c0.1-1,0.9-1.7,1.9-1.9
		s1.9,0.3,2.4,1.2l12.8,23.8l5.1-9.7c0.4-0.7,1.2-1.2,2-1.2s1.6,0.5,2,1.2l9.1,17.4L16.1,96.7L16.1,96.7z"/>
	<path class="st4" d="M55.7,114.8c-2.1,1.2-4.6,1.2-6.7,0L16.1,96.3L16,96.8l33,18.5c2.1,1.2,4.6,1.2,6.7,0L89,96.8l-0.1-0.5
		L55.7,114.8L55.7,114.8z"/>
	<g>
		
			<linearGradient id="b_00000173850298795652954080000005811912924937050807_" gradientUnits="userSpaceOnUse" x1="-717.4779" y1="603.1838" x2="-716.679" y2="602.6027" gradientTransform="matrix(95 0 0 -130.9998 68174 79049.8984)">
			<stop  offset="0" style="stop-color:#FFFFFF;stop-opacity:0.1"/>
			<stop  offset="0.14" style="stop-color:#FFFFFF;stop-opacity:8.000000e-02"/>
			<stop  offset="0.61" style="stop-color:#FFFFFF;stop-opacity:2.000000e-02"/>
			<stop  offset="1" style="stop-color:#FFFFFF;stop-opacity:0"/>
		</linearGradient>
		<path id="b" style="fill:url(#b_00000173850298795652954080000005811912924937050807_);" d="M79.5,38.3c-0.1-0.8-0.7-1.5-1.6-1.8
			c-0.8-0.3-1.7,0-2.3,0.6L63.8,48.9l-9.3-17.7c-0.4-0.7-1.2-1.2-2-1.2s-1.6,0.5-2,1.2l-5.1,9.7L32.7,17c-0.5-0.9-1.4-1.3-2.4-1.2
			c-1,0.2-1.7,0.9-1.9,1.9l-12.3,79l32.9,18.5c2.1,1.2,4.6,1.2,6.7,0l33.2-18.5L79.5,38.3L79.5,38.3z"/>
	</g>
</g>
</svg>
