<svg id="Capa_1" data-name="Capa 1" xmlns="http://www.w3.org/2000/svg" viewBox="0 0 120 120"><defs><style>.cls-1{fill:#f32735;}</style></defs><path class="cls-1" d="M108.42,55.52,64.48,11.58a6.48,6.48,0,0,0-9.16,0l-9.13,9.13L57.77,32.28a7.7,7.7,0,0,1,9.74,9.81L78.67,53.25a7.69,7.69,0,1,1-4.62,4.34l-10.4-10.4V74.57a7.57,7.57,0,0,1,2,1.46,7.71,7.71,0,1,1-10.9,0,7.6,7.6,0,0,1,2.52-1.69V46.71A7.43,7.43,0,0,1,54.78,45a7.71,7.71,0,0,1-1.66-8.43L41.71,25.19,11.58,55.31a6.49,6.49,0,0,0,0,9.17l43.94,43.94a6.49,6.49,0,0,0,9.17,0l43.73-43.73a6.49,6.49,0,0,0,0-9.17Z"/></svg>